<svg xmlns="http://www.w3.org/2000/svg" xmlns:xlink="http://www.w3.org/1999/xlink" viewBox="0 0 221.76 50.45"><defs><style>.cls-1{fill:#1e1e1e;}.cls-2{fill:#d6a20f;}.cls-3{fill:url(#linear-gradient);}.cls-4{fill:#f5c21b;}</style><linearGradient id="linear-gradient" x1="102.51" y1="71.51" x2="103.22" y2="72.66" gradientTransform="translate(-51.11 117.17) rotate(-90)" gradientUnits="userSpaceOnUse"><stop offset="0" stop-color="#f5c21b"/><stop offset="1" stop-color="#e2ac14" stop-opacity="0"/></linearGradient></defs><title>Asset 1</title><g id="Layer_2" data-name="Layer 2"><g id="Layer_1-2" data-name="Layer 1"><path class="cls-1" d="M47.36,3a2.3,2.3,0,0,1,.76-1.76A2.74,2.74,0,0,1,50.05.5H65.53a11.84,11.84,0,0,1,8.66,3.17,11.3,11.3,0,0,1,3.22,8.44q0,6.62-5.77,9.36v.17a8.09,8.09,0,0,1,3.86,3.22,9.7,9.7,0,0,1,1.35,5.24v5.78a4,4,0,0,1-1.35,3.25,6,6,0,0,1-3.92,1.12V30.44a7.45,7.45,0,0,0-1.48-5,5.53,5.53,0,0,0-4.4-1.71H52.58V35.88a4,4,0,0,1-1.32,3.25,5.87,5.87,0,0,1-3.9,1.12Zm18,16.2a6.46,6.46,0,0,0,4.9-1.9,7.22,7.22,0,0,0,1.83-5.22A7.09,7.09,0,0,0,70.35,6.9a6.62,6.62,0,0,0-5-1.8H52.58V19.17Z"/><path class="cls-1" d="M85.56,22.37a3.54,3.54,0,0,1,2.86-1.18H105a4.84,4.84,0,0,1-1,3.25A3.64,3.64,0,0,1,101,25.62H84.55A4.84,4.84,0,0,1,85.56,22.37Z"/><path class="cls-1" d="M113.91,3a2.25,2.25,0,0,1,.78-1.76A2.75,2.75,0,0,1,116.6.5h25A5.34,5.34,0,0,1,140.65,4a3.62,3.62,0,0,1-2.92,1.12H119.18V17.38h15.69a5.29,5.29,0,0,1-1,3.47A3.62,3.62,0,0,1,131,22H119.18V36a3.88,3.88,0,0,1-1.29,3.22,6.31,6.31,0,0,1-4,1Z"/><path class="cls-1" d="M145,4.37a4,4,0,0,1,1.37-3.22A5.91,5.91,0,0,1,150.28,0V35.88a4,4,0,0,1-1.37,3.22,5.91,5.91,0,0,1-3.9,1.15Z"/><path class="cls-1" d="M169.38,38.57,154.91.5A5.15,5.15,0,0,1,156,.14,5.27,5.27,0,0,1,157.1,0a4.53,4.53,0,0,1,2.66.76,4.31,4.31,0,0,1,1.6,2.1L171.62,31.5l-1,2.86.45.17L182.44,2.86a4.17,4.17,0,0,1,1.62-2.1A4.67,4.67,0,0,1,186.75,0a6,6,0,0,1,2.19.5L174.48,38.57a2.45,2.45,0,0,1-1,1.23,2.83,2.83,0,0,1-1.62.45A2.48,2.48,0,0,1,169.38,38.57Z"/><path class="cls-2" d="M47.35,45.46a.25.25,0,0,1,.08-.18.32.32,0,0,1,.2-.08h2.61a.55.55,0,0,1-.1.37.37.37,0,0,1-.31.12H47.91V47h1.64a.53.53,0,0,1-.1.36.35.35,0,0,1-.3.12H47.91v1.35h2a.39.39,0,0,1,.31.12.55.55,0,0,1,.1.37H47.63a.32.32,0,0,1-.2-.08.25.25,0,0,1-.08-.18Z"/><path class="cls-2" d="M53.33,45.63a.42.42,0,0,1,.14-.35.52.52,0,0,1,.38-.13l2.29,3.47,0,0L56,48.31V45.15a.63.63,0,0,1,.41.12.42.42,0,0,1,.13.34v3.33a.39.39,0,0,1-.13.31.45.45,0,0,1-.34.13l-2.33-3.55,0,0,.17.29v2.77a.43.43,0,0,1-.14.34.61.61,0,0,1-.41.12Z"/><path class="cls-2" d="M60.41,49.19a1.36,1.36,0,0,1-.61-.52,1.3,1.3,0,0,1-.22-.75V46.6a1.3,1.3,0,0,1,.22-.75,1.42,1.42,0,0,1,.59-.52,2.07,2.07,0,0,1,.88-.18,2.23,2.23,0,0,1,.88.16,1.49,1.49,0,0,1,.6.43,1,1,0,0,1,.21.63.35.35,0,0,1-.12.28.48.48,0,0,1-.31.1l-.12,0a1.22,1.22,0,0,0,0-.22.77.77,0,0,0-.14-.45.92.92,0,0,0-.41-.31,1.43,1.43,0,0,0-.6-.12,1.41,1.41,0,0,0-.59.12,1,1,0,0,0-.4.35.84.84,0,0,0-.15.5v1.32a.84.84,0,0,0,.15.5,1,1,0,0,0,.41.35,1.5,1.5,0,0,0,1.2,0,.9.9,0,0,0,.4-.31.8.8,0,0,0,.15-.47v-.33H61.7a.37.37,0,0,1-.3-.13.49.49,0,0,1-.11-.33h1.44a.32.32,0,0,1,.19.07.25.25,0,0,1,.07.19V48a1.26,1.26,0,0,1-.21.71,1.43,1.43,0,0,1-.6.48,2.11,2.11,0,0,1-.89.18A1.9,1.9,0,0,1,60.41,49.19Z"/><path class="cls-2" d="M66.13,45.61a.41.41,0,0,1,.15-.34.63.63,0,0,1,.41-.12v3.77a.42.42,0,0,1-.15.34.61.61,0,0,1-.41.12Z"/><path class="cls-2" d="M69.92,45.63a.45.45,0,0,1,.14-.35.52.52,0,0,1,.38-.13l2.29,3.47,0,0-.17-.28V45.15a.61.61,0,0,1,.41.12.43.43,0,0,1,.14.34v3.33a.4.4,0,0,1-.14.31.43.43,0,0,1-.33.13l-2.34-3.55,0,0,.17.29v2.77a.43.43,0,0,1-.14.34.61.61,0,0,1-.41.12Z"/><path class="cls-2" d="M76.26,45.46a.25.25,0,0,1,.08-.18.32.32,0,0,1,.2-.08h2.61a.55.55,0,0,1-.1.37.37.37,0,0,1-.31.12H76.82V47h1.64a.53.53,0,0,1-.1.36.35.35,0,0,1-.3.12H76.82v1.35h2a.39.39,0,0,1,.31.12.55.55,0,0,1,.1.37H76.54a.32.32,0,0,1-.2-.08.25.25,0,0,1-.08-.18Z"/><path class="cls-2" d="M82.24,45.46a.25.25,0,0,1,.08-.18.3.3,0,0,1,.2-.08h2.61a.55.55,0,0,1-.1.37.39.39,0,0,1-.31.12H82.79V47h1.65a.53.53,0,0,1-.1.36.39.39,0,0,1-.31.12H82.79v1.35h2a.39.39,0,0,1,.31.12.61.61,0,0,1,.1.37H82.52a.3.3,0,0,1-.2-.08.25.25,0,0,1-.08-.18Z"/><path class="cls-2" d="M88.21,45.46a.25.25,0,0,1,.08-.18.3.3,0,0,1,.21-.08h1.62a1.21,1.21,0,0,1,.91.34,1.15,1.15,0,0,1,.34.88,1,1,0,0,1-.61,1h0a.87.87,0,0,1,.41.34,1.07,1.07,0,0,1,.14.55v.61a.43.43,0,0,1-.14.34.61.61,0,0,1-.41.12v-1a.76.76,0,0,0-.16-.53.57.57,0,0,0-.46-.18H88.76v1.28a.4.4,0,0,1-.14.34.61.61,0,0,1-.41.12Zm1.89,1.7a.66.66,0,0,0,.52-.2.88.88,0,0,0,0-1.08.69.69,0,0,0-.53-.19H88.76v1.47Z"/><path class="cls-2" d="M94.54,45.61a.41.41,0,0,1,.15-.34.61.61,0,0,1,.41-.12v3.77a.42.42,0,0,1-.15.34.61.61,0,0,1-.41.12Z"/><path class="cls-2" d="M98.33,45.63a.45.45,0,0,1,.14-.35.52.52,0,0,1,.38-.13l2.29,3.47,0,0-.17-.28V45.15a.61.61,0,0,1,.41.12.43.43,0,0,1,.14.34v3.33a.4.4,0,0,1-.14.31.43.43,0,0,1-.33.13l-2.34-3.55,0,0,.17.29v2.77a.43.43,0,0,1-.14.34.61.61,0,0,1-.41.12Z"/><path class="cls-2" d="M105.41,49.19a1.41,1.41,0,0,1-.61-.52,1.37,1.37,0,0,1-.22-.75V46.6a1.3,1.3,0,0,1,.22-.75,1.39,1.39,0,0,1,.6-.52,2,2,0,0,1,.87-.18,2.23,2.23,0,0,1,.88.16,1.49,1.49,0,0,1,.6.43,1,1,0,0,1,.21.63.35.35,0,0,1-.12.28.48.48,0,0,1-.31.1l-.12,0a1.22,1.22,0,0,0,0-.22.77.77,0,0,0-.14-.45.92.92,0,0,0-.41-.31,1.4,1.4,0,0,0-.6-.12,1.41,1.41,0,0,0-.59.12,1,1,0,0,0-.4.35.84.84,0,0,0-.14.5v1.32a.92.92,0,0,0,.14.5,1,1,0,0,0,.42.35,1.4,1.4,0,0,0,.6.13,1.41,1.41,0,0,0,.59-.12.9.9,0,0,0,.4-.31.8.8,0,0,0,.15-.47v-.33h-.74a.37.37,0,0,1-.3-.13.49.49,0,0,1-.11-.33h1.44a.29.29,0,0,1,.19.07.25.25,0,0,1,.07.19V48a1.26,1.26,0,0,1-.21.71,1.43,1.43,0,0,1-.6.48,2.07,2.07,0,0,1-.88.18A1.94,1.94,0,0,1,105.41,49.19Z"/><path class="cls-2" d="M115.35,49.23a1.16,1.16,0,0,1-.49-.41,1.07,1.07,0,0,1-.18-.61,1.23,1.23,0,0,1,.21-.7,1.75,1.75,0,0,1,.6-.53,2,2,0,0,1-.34-.41.89.89,0,0,1-.12-.45,1.05,1.05,0,0,1,.25-.7,1,1,0,0,1,1.2-.14.9.9,0,0,1,.33.34,1.06,1.06,0,0,1,.12.5.87.87,0,0,1-.16.5,2.25,2.25,0,0,1-.49.49l1.1,1.1a1.27,1.27,0,0,0,.3-.77c0-.08,0-.13,0-.16.33,0,.5.13.5.4a.73.73,0,0,1-.11.4,2.57,2.57,0,0,1-.33.47l.63.62a.43.43,0,0,1-.15.15.46.46,0,0,1-.21,0,.42.42,0,0,1-.28-.1l-.34-.34a2.17,2.17,0,0,1-.63.34,2.27,2.27,0,0,1-.72.11A1.51,1.51,0,0,1,115.35,49.23Zm1.68-.68-1.21-1.21a1.37,1.37,0,0,0-.44.37.84.84,0,0,0-.15.5.6.6,0,0,0,.24.51,1.06,1.06,0,0,0,.62.17A1.4,1.4,0,0,0,117,48.55Zm-.74-2.11a.62.62,0,0,0,.09-.32.64.64,0,0,0-.09-.36.36.36,0,0,0-.31-.13.35.35,0,0,0-.3.13.66.66,0,0,0,0,.68,1.67,1.67,0,0,0,.3.32A1.37,1.37,0,0,0,116.29,46.44Z"/><path class="cls-2" d="M125.9,49.19a1.41,1.41,0,0,1-.61-.52,1.37,1.37,0,0,1-.21-.75V46.6a1.37,1.37,0,0,1,.21-.75,1.52,1.52,0,0,1,.6-.52,2.07,2.07,0,0,1,.88-.18,2.23,2.23,0,0,1,.88.16,1.39,1.39,0,0,1,.59.43,1,1,0,0,1,.22.64.33.33,0,0,1-.12.27.45.45,0,0,1-.31.1h-.13a1.09,1.09,0,0,0,0-.22.77.77,0,0,0-.15-.46,1,1,0,0,0-.4-.31,1.64,1.64,0,0,0-.6-.11,1.38,1.38,0,0,0-.59.12.89.89,0,0,0-.4.34.87.87,0,0,0-.15.5v1.32a.87.87,0,0,0,.15.5,1,1,0,0,0,.4.35,1.46,1.46,0,0,0,.6.12,1.66,1.66,0,0,0,.61-.11,1.09,1.09,0,0,0,.41-.31A.73.73,0,0,0,128,48c0-.06,0-.13,0-.22h.12a.43.43,0,0,1,.32.11.38.38,0,0,1,.12.3,1,1,0,0,1-.22.62,1.48,1.48,0,0,1-.6.42,2.48,2.48,0,0,1-.89.15A1.93,1.93,0,0,1,125.9,49.19Z"/><path class="cls-2" d="M132.13,49.19a1.48,1.48,0,0,1-.6-.53,1.34,1.34,0,0,1-.22-.75v-1.3a1.29,1.29,0,0,1,.22-.74,1.41,1.41,0,0,1,.6-.53,2.11,2.11,0,0,1,1.75,0,1.5,1.5,0,0,1,.61.53,1.36,1.36,0,0,1,.21.74v1.3a1.42,1.42,0,0,1-.21.75,1.58,1.58,0,0,1-.61.53,2.11,2.11,0,0,1-1.75,0Zm1.73-.57a.92.92,0,0,0,.3-.72V46.62a.92.92,0,0,0-.3-.72,1.27,1.27,0,0,0-.86-.27,1.21,1.21,0,0,0-.84.27.9.9,0,0,0-.31.72V47.9a.9.9,0,0,0,.31.72,1.17,1.17,0,0,0,.84.28A1.22,1.22,0,0,0,133.86,48.62Z"/><path class="cls-2" d="M137.67,45.63a.45.45,0,0,1,.14-.35.53.53,0,0,1,.39-.13l2.28,3.47,0,0-.17-.28V45.15a.61.61,0,0,1,.41.12.43.43,0,0,1,.14.34v3.33a.39.39,0,0,1-.13.31.45.45,0,0,1-.34.13l-2.34-3.55,0,0,.17.29v2.77a.43.43,0,0,1-.14.34.61.61,0,0,1-.41.12Z"/><path class="cls-2" d="M144.63,49.24a1.28,1.28,0,0,1-.55-.38.79.79,0,0,1-.19-.51A.45.45,0,0,1,144,48a.49.49,0,0,1,.36-.12,1,1,0,0,0,.3.76,1.21,1.21,0,0,0,.84.26,1.45,1.45,0,0,0,.79-.17.57.57,0,0,0,.28-.52.5.5,0,0,0-.1-.33.79.79,0,0,0-.35-.23,4.51,4.51,0,0,0-.7-.2,4.19,4.19,0,0,1-.86-.27,1.33,1.33,0,0,1-.47-.38,1,1,0,0,1-.14-.56,1,1,0,0,1,.18-.58,1.12,1.12,0,0,1,.53-.38,2.1,2.1,0,0,1,.79-.14,2.26,2.26,0,0,1,.77.12,1.28,1.28,0,0,1,.53.34.75.75,0,0,1,.19.5.33.33,0,0,1-.11.27.51.51,0,0,1-.34.1,1,1,0,0,0-.31-.66,1.11,1.11,0,0,0-.73-.2,1.25,1.25,0,0,0-.7.16.51.51,0,0,0-.25.45.59.59,0,0,0,.09.34.65.65,0,0,0,.31.23,4.47,4.47,0,0,0,.62.18,4.73,4.73,0,0,1,.95.29,1.28,1.28,0,0,1,.5.39,1,1,0,0,1,.15.56,1,1,0,0,1-.45.85,2,2,0,0,1-1.19.31A2.46,2.46,0,0,1,144.63,49.24Z"/><path class="cls-2" d="M151.06,45.69h-1.43c0-.32.15-.49.45-.49h3c0,.33-.16.49-.46.49h-1v3.23a.4.4,0,0,1-.14.34.61.61,0,0,1-.41.12Z"/><path class="cls-2" d="M156,45.46a.24.24,0,0,1,.07-.18.3.3,0,0,1,.21-.08h1.62a1.21,1.21,0,0,1,.91.34,1.15,1.15,0,0,1,.34.88,1,1,0,0,1-.61,1h0a.87.87,0,0,1,.41.34,1.07,1.07,0,0,1,.14.55v.61a.43.43,0,0,1-.14.34.61.61,0,0,1-.41.12v-1a.76.76,0,0,0-.16-.53.57.57,0,0,0-.46-.18H156.5v1.28a.4.4,0,0,1-.14.34.58.58,0,0,1-.4.12Zm1.88,1.7a.66.66,0,0,0,.52-.2.88.88,0,0,0,0-1.08.69.69,0,0,0-.53-.19H156.5v1.47Z"/><path class="cls-2" d="M162.94,49.19a1.5,1.5,0,0,1-.59-.52,1.37,1.37,0,0,1-.21-.75V45.61a.4.4,0,0,1,.14-.34.61.61,0,0,1,.41-.12v2.77a.89.89,0,0,0,.3.7,1.17,1.17,0,0,0,.8.26,1.12,1.12,0,0,0,.78-.26.9.9,0,0,0,.31-.7V45.61a.4.4,0,0,1,.14-.34.61.61,0,0,1,.41-.12v2.77a1.37,1.37,0,0,1-.21.75,1.57,1.57,0,0,1-.59.52,1.79,1.79,0,0,1-.84.19A1.83,1.83,0,0,1,162.94,49.19Z"/><path class="cls-2" d="M169.27,49.19a1.33,1.33,0,0,1-.6-.52,1.37,1.37,0,0,1-.22-.75V46.6a1.37,1.37,0,0,1,.22-.75,1.39,1.39,0,0,1,.6-.52,2,2,0,0,1,.87-.18,2.19,2.19,0,0,1,.88.16,1.37,1.37,0,0,1,.6.43,1,1,0,0,1,.21.64.35.35,0,0,1-.11.27.47.47,0,0,1-.32.1h-.12a1.28,1.28,0,0,0,0-.22.76.76,0,0,0-.14-.46,1,1,0,0,0-.41-.31,1.57,1.57,0,0,0-.6-.11,1.34,1.34,0,0,0-.58.12.92.92,0,0,0-.41.34.94.94,0,0,0-.14.5v1.32a.94.94,0,0,0,.14.5,1,1,0,0,0,.41.35,1.4,1.4,0,0,0,.6.12,1.6,1.6,0,0,0,.6-.11,1,1,0,0,0,.41-.31.73.73,0,0,0,.15-.46,1.86,1.86,0,0,0,0-.22h.12a.41.41,0,0,1,.31.11.38.38,0,0,1,.12.3,1,1,0,0,1-.21.62,1.45,1.45,0,0,1-.61.42,2.39,2.39,0,0,1-.88.15A2,2,0,0,1,169.27,49.19Z"/><path class="cls-2" d="M175.8,45.69h-1.44c0-.32.15-.49.46-.49h3c0,.33-.15.49-.46.49h-1v3.23a.43.43,0,0,1-.14.34.63.63,0,0,1-.41.12Z"/><path class="cls-2" d="M180.81,45.61a.43.43,0,0,1,.14-.34.63.63,0,0,1,.41-.12v3.77a.44.44,0,0,1-.14.34.65.65,0,0,1-.41.12Z"/><path class="cls-2" d="M185.27,49.19a1.58,1.58,0,0,1-.61-.53,1.42,1.42,0,0,1-.21-.75v-1.3a1.36,1.36,0,0,1,.21-.74,1.5,1.5,0,0,1,.61-.53,2.11,2.11,0,0,1,1.75,0,1.5,1.5,0,0,1,.61.53,1.36,1.36,0,0,1,.21.74v1.3a1.42,1.42,0,0,1-.21.75,1.58,1.58,0,0,1-.61.53,2.07,2.07,0,0,1-.88.19A2,2,0,0,1,185.27,49.19Zm1.73-.57a.92.92,0,0,0,.3-.72V46.62a.92.92,0,0,0-.3-.72,1.49,1.49,0,0,0-1.71,0,.92.92,0,0,0-.3.72V47.9a.92.92,0,0,0,.3.72,1.45,1.45,0,0,0,1.71,0Z"/><path class="cls-2" d="M190.81,45.63a.45.45,0,0,1,.14-.35.53.53,0,0,1,.39-.13l2.28,3.47,0,0-.17-.28V45.15a.61.61,0,0,1,.41.12.43.43,0,0,1,.14.34v3.33a.4.4,0,0,1-.14.31.43.43,0,0,1-.33.13l-2.34-3.55,0,0,.17.29v2.77a.43.43,0,0,1-.14.34.61.61,0,0,1-.41.12Z"/><path class="cls-2" d="M197.77,49.24a1.28,1.28,0,0,1-.55-.38.79.79,0,0,1-.19-.51.42.42,0,0,1,.48-.46,1,1,0,0,0,.3.76,1.21,1.21,0,0,0,.84.26,1.45,1.45,0,0,0,.79-.17.57.57,0,0,0,.28-.52.5.5,0,0,0-.1-.33.79.79,0,0,0-.35-.23,4.51,4.51,0,0,0-.7-.2,4,4,0,0,1-.86-.27,1.24,1.24,0,0,1-.47-.38,1,1,0,0,1-.15-.56,1,1,0,0,1,.19-.58,1.12,1.12,0,0,1,.53-.38,2.1,2.1,0,0,1,.79-.14,2.3,2.3,0,0,1,.77.12,1.28,1.28,0,0,1,.53.34.75.75,0,0,1,.19.5.37.37,0,0,1-.11.27.51.51,0,0,1-.34.1,1,1,0,0,0-.31-.66,1.11,1.11,0,0,0-.73-.2,1.29,1.29,0,0,0-.71.16.52.52,0,0,0-.24.45.59.59,0,0,0,.09.34.65.65,0,0,0,.31.23,4.08,4.08,0,0,0,.62.18,4.73,4.73,0,0,1,1,.29,1.18,1.18,0,0,1,.49.39.93.93,0,0,1,.16.56,1,1,0,0,1-.45.85,2.05,2.05,0,0,1-1.2.31A2.4,2.4,0,0,1,197.77,49.24Z"/><path class="cls-2" d="M207.13,49.24A.27.27,0,0,1,207,49V45.61c0-.31.19-.46.56-.46v3.69h1.81a.4.4,0,0,1,.31.12.53.53,0,0,1,.12.37h-2.51A.27.27,0,0,1,207.13,49.24Z"/><path class="cls-2" d="M212.83,49.24a.27.27,0,0,1-.09-.2V45.61c0-.31.19-.46.56-.46v3.69h1.8a.41.41,0,0,1,.32.12.53.53,0,0,1,.11.37H213A.27.27,0,0,1,212.83,49.24Z"/><path class="cls-2" d="M218.44,45.46a.25.25,0,0,1,.08-.18.3.3,0,0,1,.21-.08h1.72a1.4,1.4,0,0,1,.68.17,1.07,1.07,0,0,1,.47.45,1.33,1.33,0,0,1,.16.67,1.37,1.37,0,0,1-.16.68,1.05,1.05,0,0,1-.46.45,1.41,1.41,0,0,1-.69.16H219v1.14a.43.43,0,0,1-.14.34.66.66,0,0,1-.42.12Zm2,1.83a.72.72,0,0,0,.55-.21.8.8,0,0,0,.21-.59.78.78,0,0,0-.21-.58.71.71,0,0,0-.55-.22H219v1.6Z"/><path class="cls-2" d="M14.16,1.64H39.1a1.93,1.93,0,0,1,1.66,2.91L27.66,26.83Z"/><polygon class="cls-3" points="15.15 1.64 29.03 24.49 27.59 27.08 13.77 2.31 14.16 1.64 15.15 1.64"/><path class="cls-4" d="M0,25.92,14.16,1.64,40.79,47.55a1.93,1.93,0,0,1-1.67,2.9h-25Z"/><path class="cls-1" d="M220.15,36.27a3.62,3.62,0,0,0-2.92-1.12H197.72V22.25h11.83a3.62,3.62,0,0,0,2.92-1.12,5.29,5.29,0,0,0,.95-3.47h-21V37.28a2.23,2.23,0,0,0,.79,1.76,2.74,2.74,0,0,0,1.9.7h26A5.32,5.32,0,0,0,220.15,36.27Z"/><path class="cls-4" d="M197.72,5.1h18.33A3.66,3.66,0,0,0,219,4,5.28,5.28,0,0,0,220,.5H195.14a2.75,2.75,0,0,0-1.9.71A2.23,2.23,0,0,0,192.45,3V5.1Z"/></g></g></svg>