<?xml version="1.0" encoding="utf-8"?>
<!-- Generator: Adobe Illustrator 24.0.1, SVG Export Plug-In . SVG Version: 6.00 Build 0)  -->
<svg version="1.1" id="Layer_1" xmlns="http://www.w3.org/2000/svg" xmlns:xlink="http://www.w3.org/1999/xlink" x="0px" y="0px"
	 viewBox="0 0 221.8 50.5" style="enable-background:new 0 0 221.8 50.5;" xml:space="preserve">
<style type="text/css">
	.st0{fill:#F9F9F9;}
	.st1{fill:#D6A20F;}
	.st2{fill:url(#SVGID_1_);}
	.st3{fill:#F5C21B;}
</style>
<title>Asset 1</title>
<path class="st0" d="M47.4,3c0-0.7,0.3-1.3,0.8-1.8c0.5-0.5,1.2-0.8,1.9-0.7h15.5c3.2-0.2,6.3,1,8.7,3.2c2.2,2.2,3.4,5.3,3.2,8.4
	c0,4.4-1.9,7.5-5.8,9.4v0.2c1.6,0.6,2.9,1.8,3.9,3.2c0.9,1.6,1.4,3.4,1.3,5.2v5.8c0.1,1.2-0.4,2.4-1.3,3.3c-1.1,0.8-2.5,1.2-3.9,1.1
	v-9.8c0.1-1.8-0.4-3.6-1.5-5c-1.1-1.2-2.8-1.8-4.4-1.7H52.6v12.2c0.1,1.2-0.4,2.4-1.3,3.3c-1.1,0.8-2.5,1.2-3.9,1.1V3z M65.4,19.2
	c1.8,0.1,3.6-0.6,4.9-1.9c1.3-1.4,1.9-3.3,1.8-5.2c0.1-1.9-0.5-3.8-1.7-5.2c-1.3-1.3-3.2-1.9-5-1.8H52.6v14.1L65.4,19.2z"/>
<path class="st0" d="M85.6,22.4c0.7-0.8,1.8-1.2,2.9-1.2H105c0.1,1.2-0.3,2.3-1,3.3c-0.8,0.8-1.9,1.3-3,1.2H84.6
	C84.5,24.5,84.8,23.3,85.6,22.4z"/>
<path class="st0" d="M113.9,3c0-0.7,0.3-1.3,0.8-1.8c0.5-0.5,1.2-0.7,1.9-0.7h25c0.1,1.2-0.2,2.5-1,3.5c-0.8,0.8-1.8,1.2-2.9,1.1
	h-18.5v12.3h15.7c0.1,1.2-0.3,2.5-1,3.5c-0.7,0.8-1.8,1.2-2.9,1.2h-11.8v14c0.1,1.2-0.4,2.4-1.3,3.2c-1.2,0.8-2.6,1.1-4,1L113.9,3z"
	/>
<path class="st0" d="M145,4.4c-0.1-1.2,0.4-2.4,1.4-3.2c1.1-0.8,2.5-1.2,3.9-1.1v35.9c0.1,1.2-0.4,2.4-1.4,3.2
	c-1.1,0.8-2.5,1.2-3.9,1.2L145,4.4z"/>
<path class="st0" d="M169.4,38.6L154.9,0.5c0.3-0.2,0.7-0.3,1.1-0.4c0.4-0.1,0.7-0.1,1.1-0.1c0.9,0,1.9,0.2,2.7,0.8
	c0.7,0.5,1.3,1.2,1.6,2.1l10.3,28.6l-1,2.9l0.4,0.2l11.4-31.7c0.3-0.9,0.9-1.6,1.6-2.1c0.8-0.5,1.7-0.8,2.7-0.8
	c0.8,0,1.5,0.2,2.2,0.5l-14.5,38.1c-0.2,0.5-0.5,0.9-1,1.2c-0.5,0.3-1,0.5-1.6,0.5C170.8,40.3,169.7,39.6,169.4,38.6z"/>
<path class="st1" d="M47.3,45.5c0-0.1,0-0.1,0.1-0.2c0.1,0,0.1-0.1,0.2-0.1h2.6c0,0.1,0,0.3-0.1,0.4c-0.1,0.1-0.2,0.1-0.3,0.1h-1.9
	V47h1.6c0,0.1,0,0.3-0.1,0.4c-0.1,0.1-0.2,0.1-0.3,0.1h-1.2v1.3h2c0.1,0,0.2,0,0.3,0.1c0.1,0.1,0.1,0.2,0.1,0.4h-2.7
	c-0.1,0-0.1,0-0.2-0.1c-0.1,0-0.1-0.1-0.1-0.2V45.5z"/>
<path class="st1" d="M53.3,45.6c0-0.1,0-0.3,0.1-0.3c0.1-0.1,0.2-0.1,0.4-0.1l2.3,3.5l0,0L56,48.3v-3.2c0.1,0,0.3,0,0.4,0.1
	c0.1,0.1,0.1,0.2,0.1,0.3v3.3c0,0.1,0,0.2-0.1,0.3c-0.1,0.1-0.2,0.1-0.3,0.1l-2.3-3.5l0,0l0.2,0.3v2.8c0,0.1,0,0.3-0.1,0.3
	c-0.1,0.1-0.3,0.1-0.4,0.1L53.3,45.6z"/>
<path class="st1" d="M60.4,49.2c-0.3-0.1-0.5-0.3-0.6-0.5c-0.1-0.2-0.2-0.5-0.2-0.8v-1.3c0-0.3,0.1-0.5,0.2-0.8
	c0.1-0.2,0.3-0.4,0.6-0.5c0.3-0.1,0.6-0.2,0.9-0.2c0.3,0,0.6,0,0.9,0.2c0.2,0.1,0.4,0.2,0.6,0.4c0.1,0.2,0.2,0.4,0.2,0.6
	c0,0.1,0,0.2-0.1,0.3c-0.1,0.1-0.2,0.1-0.3,0.1h-0.1c0-0.1,0-0.1,0-0.2c0-0.2,0-0.3-0.1-0.5c-0.1-0.1-0.2-0.2-0.4-0.3
	c-0.2-0.1-0.4-0.1-0.6-0.1c-0.2,0-0.4,0-0.6,0.1c-0.2,0.1-0.3,0.2-0.4,0.3c-0.1,0.1-0.2,0.3-0.2,0.5v1.3c0,0.2,0,0.4,0.2,0.5
	c0.1,0.2,0.2,0.3,0.4,0.3c0.4,0.2,0.8,0.2,1.2,0c0.2-0.1,0.3-0.2,0.4-0.3c0.1-0.1,0.2-0.3,0.2-0.5v-0.3h-0.7c-0.1,0-0.2,0-0.3-0.1
	c-0.1-0.1-0.1-0.2-0.1-0.3h1.4c0.1,0,0.1,0,0.2,0.1c0,0.1,0.1,0.1,0.1,0.2V48c0,0.3-0.1,0.5-0.2,0.7c-0.2,0.2-0.4,0.4-0.6,0.5
	c-0.3,0.1-0.6,0.2-0.9,0.2C61,49.4,60.7,49.3,60.4,49.2z"/>
<path class="st1" d="M66.1,45.6c0-0.1,0-0.3,0.2-0.3c0.1-0.1,0.3-0.1,0.4-0.1v3.8c0,0.1,0,0.3-0.2,0.3c-0.1,0.1-0.3,0.1-0.4,0.1
	V45.6z"/>
<path class="st1" d="M69.9,45.6c0-0.1,0-0.3,0.1-0.3c0.1-0.1,0.2-0.1,0.4-0.1l2.3,3.5l0,0l-0.2-0.3v-3.2c0.1,0,0.3,0,0.4,0.1
	c0.1,0.1,0.1,0.2,0.1,0.3v3.3c0,0.1,0,0.2-0.1,0.3c-0.1,0.1-0.2,0.1-0.3,0.1l-2.3-3.5l0,0l0.2,0.3v2.8c0,0.1,0,0.3-0.1,0.3
	c-0.1,0.1-0.3,0.1-0.4,0.1V45.6z"/>
<path class="st1" d="M76.3,45.5c0-0.1,0-0.1,0.1-0.2c0.1,0,0.1-0.1,0.2-0.1h2.6c0,0.1,0,0.3-0.1,0.4c-0.1,0.1-0.2,0.1-0.3,0.1h-1.9
	V47h1.6c0,0.1,0,0.3-0.1,0.4c-0.1,0.1-0.2,0.1-0.3,0.1h-1.2v1.3h2c0.1,0,0.2,0,0.3,0.1c0.1,0.1,0.1,0.2,0.1,0.4h-2.7
	c-0.1,0-0.1,0-0.2-0.1c-0.1,0-0.1-0.1-0.1-0.2V45.5z"/>
<path class="st1" d="M82.2,45.5c0-0.1,0-0.1,0.1-0.2c0.1-0.1,0.1-0.1,0.2-0.1h2.6c0,0.1,0,0.3-0.1,0.4c-0.1,0.1-0.2,0.1-0.3,0.1
	h-1.9V47h1.7c0,0.1,0,0.3-0.1,0.4c-0.1,0.1-0.2,0.1-0.3,0.1h-1.2v1.3h2c0.1,0,0.2,0,0.3,0.1c0.1,0.1,0.1,0.2,0.1,0.4h-2.7
	c-0.1,0-0.1,0-0.2-0.1c-0.1,0-0.1-0.1-0.1-0.2V45.5z"/>
<path class="st1" d="M88.2,45.5c0-0.1,0-0.1,0.1-0.2c0.1-0.1,0.1-0.1,0.2-0.1h1.6c0.3,0,0.7,0.1,0.9,0.3c0.2,0.2,0.4,0.6,0.3,0.9
	c0,0.4-0.2,0.8-0.6,1l0,0c0.2,0.1,0.3,0.2,0.4,0.3c0.1,0.2,0.1,0.4,0.1,0.5v0.6c0,0.1,0,0.3-0.1,0.3c-0.1,0.1-0.3,0.1-0.4,0.1v-1
	c0-0.2,0-0.4-0.2-0.5c-0.1-0.1-0.3-0.2-0.5-0.2h-1.4v1.3c0,0.1,0,0.3-0.1,0.3c-0.1,0.1-0.3,0.1-0.4,0.1V45.5z M90.1,47.2
	c0.2,0,0.4-0.1,0.5-0.2c0.2-0.3,0.2-0.8,0-1.1c-0.1-0.1-0.3-0.2-0.5-0.2h-1.3v1.5H90.1z"/>
<path class="st1" d="M94.5,45.6c0-0.1,0-0.3,0.2-0.3c0.1-0.1,0.3-0.1,0.4-0.1v3.8c0,0.1,0,0.3-0.2,0.3c-0.1,0.1-0.3,0.1-0.4,0.1
	V45.6z"/>
<path class="st1" d="M98.3,45.6c0-0.1,0-0.3,0.1-0.3c0.1-0.1,0.2-0.1,0.4-0.1l2.3,3.5l0,0l-0.2-0.3v-3.2c0.1,0,0.3,0,0.4,0.1
	c0.1,0.1,0.1,0.2,0.1,0.3v3.3c0,0.1,0,0.2-0.1,0.3c-0.1,0.1-0.2,0.1-0.3,0.1l-2.3-3.5l0,0l0.2,0.3v2.8c0,0.1,0,0.3-0.1,0.3
	c-0.1,0.1-0.3,0.1-0.4,0.1V45.6z"/>
<path class="st1" d="M105.4,49.2c-0.2-0.1-0.5-0.3-0.6-0.5c-0.1-0.2-0.2-0.5-0.2-0.8v-1.3c0-0.3,0.1-0.5,0.2-0.8
	c0.1-0.2,0.4-0.4,0.6-0.5c0.3-0.1,0.6-0.2,0.9-0.2c0.3,0,0.6,0,0.9,0.2c0.2,0.1,0.4,0.2,0.6,0.4c0.1,0.2,0.2,0.4,0.2,0.6
	c0,0.1,0,0.2-0.1,0.3c-0.1,0.1-0.2,0.1-0.3,0.1h-0.1c0-0.1,0-0.1,0-0.2c0-0.2,0-0.3-0.1-0.5c-0.1-0.1-0.2-0.2-0.4-0.3
	c-0.2-0.1-0.4-0.1-0.6-0.1c-0.2,0-0.4,0-0.6,0.1c-0.2,0.1-0.3,0.2-0.4,0.3c-0.1,0.1-0.1,0.3-0.1,0.5v1.3c0,0.2,0,0.4,0.1,0.5
	c0.1,0.2,0.3,0.3,0.4,0.3c0.2,0.1,0.4,0.1,0.6,0.1c0.2,0,0.4,0,0.6-0.1c0.2-0.1,0.3-0.2,0.4-0.3c0.1-0.1,0.2-0.3,0.2-0.5v-0.3h-0.7
	c-0.1,0-0.2,0-0.3-0.1c-0.1-0.1-0.1-0.2-0.1-0.3h1.4c0.1,0,0.1,0,0.2,0.1c0,0.1,0.1,0.1,0.1,0.2V48c0,0.3-0.1,0.5-0.2,0.7
	c-0.2,0.2-0.4,0.4-0.6,0.5c-0.3,0.1-0.6,0.2-0.9,0.2C106,49.4,105.7,49.3,105.4,49.2z"/>
<path class="st1" d="M115.3,49.2c-0.2-0.1-0.4-0.2-0.5-0.4c-0.1-0.2-0.2-0.4-0.2-0.6c0-0.2,0.1-0.5,0.2-0.7c0.2-0.2,0.4-0.4,0.6-0.5
	c-0.1-0.1-0.2-0.3-0.3-0.4c-0.1-0.1-0.1-0.3-0.1-0.5c0-0.3,0.1-0.5,0.3-0.7c0.3-0.3,0.8-0.4,1.2-0.1c0.1,0.1,0.3,0.2,0.3,0.3
	c0.1,0.2,0.1,0.3,0.1,0.5c0,0.2-0.1,0.4-0.2,0.5c-0.1,0.2-0.3,0.4-0.5,0.5l1.1,1.1c0.2-0.2,0.3-0.5,0.3-0.8c0-0.1,0-0.1,0-0.2
	c0.3,0,0.5,0.1,0.5,0.4c0,0.1,0,0.3-0.1,0.4c-0.1,0.2-0.2,0.3-0.3,0.5l0.6,0.6c0,0.1-0.1,0.1-0.2,0.2c-0.1,0-0.1,0-0.2,0
	c-0.1,0-0.2,0-0.3-0.1l-0.3-0.3c-0.2,0.1-0.4,0.3-0.6,0.3c-0.2,0.1-0.5,0.1-0.7,0.1C115.8,49.4,115.6,49.3,115.3,49.2z M117,48.5
	l-1.2-1.2c-0.2,0.1-0.3,0.2-0.4,0.4c-0.1,0.1-0.2,0.3-0.2,0.5c0,0.2,0.1,0.4,0.2,0.5c0.2,0.1,0.4,0.2,0.6,0.2
	C116.4,48.9,116.7,48.8,117,48.5L117,48.5z M116.3,46.4c0.1-0.1,0.1-0.2,0.1-0.3c0-0.1,0-0.3-0.1-0.4c-0.1-0.1-0.2-0.1-0.3-0.1
	c-0.1,0-0.2,0-0.3,0.1c-0.1,0.2-0.1,0.5,0,0.7c0.1,0.1,0.2,0.2,0.3,0.3C116.1,46.7,116.2,46.6,116.3,46.4z"/>
<path class="st1" d="M125.9,49.2c-0.2-0.1-0.5-0.3-0.6-0.5c-0.1-0.2-0.2-0.5-0.2-0.8v-1.3c0-0.3,0.1-0.5,0.2-0.8
	c0.2-0.2,0.4-0.4,0.6-0.5c0.3-0.1,0.6-0.2,0.9-0.2c0.3,0,0.6,0,0.9,0.2c0.2,0.1,0.4,0.2,0.6,0.4c0.1,0.2,0.2,0.4,0.2,0.6
	c0,0.1,0,0.2-0.1,0.3c-0.1,0.1-0.2,0.1-0.3,0.1h-0.1c0-0.1,0-0.1,0-0.2c0-0.2-0.1-0.3-0.2-0.5c-0.1-0.1-0.2-0.2-0.4-0.3
	c-0.2-0.1-0.4-0.1-0.6-0.1c-0.2,0-0.4,0-0.6,0.1c-0.2,0.1-0.3,0.2-0.4,0.3c-0.1,0.1-0.2,0.3-0.2,0.5v1.3c0,0.2,0.1,0.4,0.2,0.5
	c0.1,0.2,0.2,0.3,0.4,0.3c0.2,0.1,0.4,0.1,0.6,0.1c0.2,0,0.4,0,0.6-0.1c0.2-0.1,0.3-0.2,0.4-0.3c0.1-0.1,0.2-0.3,0.2-0.5
	c0-0.1,0-0.1,0-0.2h0.1c0.1,0,0.2,0,0.3,0.1c0.1,0.1,0.1,0.2,0.1,0.3c0,0.2-0.1,0.4-0.2,0.6c-0.2,0.2-0.4,0.3-0.6,0.4
	c-0.3,0.1-0.6,0.2-0.9,0.2C126.5,49.4,126.2,49.3,125.9,49.2z"/>
<path class="st1" d="M132.1,49.2c-0.2-0.1-0.5-0.3-0.6-0.5c-0.1-0.2-0.2-0.5-0.2-0.8v-1.3c0-0.3,0.1-0.5,0.2-0.7
	c0.1-0.2,0.4-0.4,0.6-0.5c0.6-0.3,1.2-0.3,1.8,0c0.2,0.1,0.5,0.3,0.6,0.5c0.1,0.2,0.2,0.5,0.2,0.7v1.3c0,0.3-0.1,0.5-0.2,0.8
	c-0.2,0.2-0.4,0.4-0.6,0.5C133.3,49.4,132.7,49.4,132.1,49.2z M133.9,48.6c0.2-0.2,0.3-0.4,0.3-0.7v-1.3c0-0.3-0.1-0.5-0.3-0.7
	c-0.2-0.2-0.5-0.3-0.9-0.3c-0.3,0-0.6,0.1-0.8,0.3c-0.2,0.2-0.3,0.4-0.3,0.7v1.3c0,0.3,0.1,0.5,0.3,0.7c0.2,0.2,0.5,0.3,0.8,0.3
	C133.3,48.9,133.6,48.8,133.9,48.6z"/>
<path class="st1" d="M137.7,45.6c0-0.1,0-0.3,0.1-0.3c0.1-0.1,0.2-0.1,0.4-0.1l2.3,3.5l0,0l-0.2-0.3v-3.2c0.1,0,0.3,0,0.4,0.1
	c0.1,0.1,0.1,0.2,0.1,0.3v3.3c0,0.1,0,0.2-0.1,0.3c-0.1,0.1-0.2,0.1-0.3,0.1l-2.3-3.5l0,0l0.2,0.3v2.8c0,0.1,0,0.3-0.1,0.3
	c-0.1,0.1-0.3,0.1-0.4,0.1V45.6z"/>
<path class="st1" d="M144.6,49.2c-0.2-0.1-0.4-0.2-0.6-0.4c-0.1-0.1-0.2-0.3-0.2-0.5c0-0.1,0-0.3,0.1-0.4c0.1-0.1,0.2-0.1,0.4-0.1
	c0,0.3,0.1,0.6,0.3,0.8c0.2,0.2,0.5,0.3,0.8,0.3c0.3,0,0.5,0,0.8-0.2c0.2-0.1,0.3-0.3,0.3-0.5c0-0.1,0-0.2-0.1-0.3
	c-0.1-0.1-0.2-0.2-0.4-0.2c-0.2-0.1-0.5-0.2-0.7-0.2c-0.3-0.1-0.6-0.1-0.9-0.3c-0.2-0.1-0.3-0.2-0.5-0.4c-0.1-0.2-0.1-0.4-0.1-0.6
	c0-0.2,0.1-0.4,0.2-0.6c0.1-0.2,0.3-0.3,0.5-0.4c0.3-0.1,0.5-0.1,0.8-0.1c0.3,0,0.5,0,0.8,0.1c0.2,0.1,0.4,0.2,0.5,0.3
	c0.1,0.1,0.2,0.3,0.2,0.5c0,0.1,0,0.2-0.1,0.3c-0.1,0.1-0.2,0.1-0.3,0.1c0-0.3-0.1-0.5-0.3-0.7c-0.2-0.2-0.5-0.2-0.7-0.2
	c-0.2,0-0.5,0-0.7,0.2c-0.2,0.1-0.3,0.3-0.3,0.5c0,0.1,0,0.2,0.1,0.3c0.1,0.1,0.2,0.2,0.3,0.2c0.2,0.1,0.4,0.1,0.6,0.2
	c0.3,0.1,0.6,0.2,0.9,0.3c0.2,0.1,0.4,0.2,0.5,0.4c0.1,0.2,0.2,0.4,0.1,0.6c0,0.3-0.2,0.7-0.4,0.8c-0.4,0.2-0.8,0.3-1.2,0.3
	C145.2,49.4,144.9,49.3,144.6,49.2z"/>
<path class="st1" d="M151.1,45.7h-1.4c0-0.3,0.1-0.5,0.4-0.5h3c0,0.3-0.2,0.5-0.5,0.5h-1v3.2c0,0.1,0,0.3-0.1,0.3
	c-0.1,0.1-0.3,0.1-0.4,0.1L151.1,45.7z"/>
<path class="st1" d="M156,45.5c0-0.1,0-0.1,0.1-0.2c0.1-0.1,0.1-0.1,0.2-0.1h1.6c0.3,0,0.7,0.1,0.9,0.3c0.2,0.2,0.4,0.6,0.3,0.9
	c0,0.4-0.2,0.8-0.6,1l0,0c0.2,0.1,0.3,0.2,0.4,0.3c0.1,0.2,0.1,0.4,0.1,0.5v0.6c0,0.1,0,0.3-0.1,0.3c-0.1,0.1-0.3,0.1-0.4,0.1v-1
	c0-0.2,0-0.4-0.2-0.5c-0.1-0.1-0.3-0.2-0.5-0.2h-1.4v1.3c0,0.1,0,0.3-0.1,0.3c-0.1,0.1-0.3,0.1-0.4,0.1L156,45.5z M157.9,47.2
	c0.2,0,0.4-0.1,0.5-0.2c0.2-0.3,0.2-0.8,0-1.1c-0.1-0.1-0.3-0.2-0.5-0.2h-1.4v1.5H157.9z"/>
<path class="st1" d="M162.9,49.2c-0.2-0.1-0.4-0.3-0.6-0.5c-0.1-0.2-0.2-0.5-0.2-0.8v-2.3c0-0.1,0-0.3,0.1-0.3
	c0.1-0.1,0.3-0.1,0.4-0.1v2.8c0,0.3,0.1,0.5,0.3,0.7c0.2,0.2,0.5,0.3,0.8,0.3c0.3,0,0.6-0.1,0.8-0.3c0.2-0.2,0.3-0.4,0.3-0.7v-2.3
	c0-0.1,0-0.3,0.1-0.3c0.1-0.1,0.3-0.1,0.4-0.1v2.8c0,0.3-0.1,0.5-0.2,0.8c-0.1,0.2-0.4,0.4-0.6,0.5c-0.3,0.1-0.5,0.2-0.8,0.2
	C163.5,49.4,163.2,49.3,162.9,49.2z"/>
<path class="st1" d="M169.3,49.2c-0.2-0.1-0.5-0.3-0.6-0.5c-0.1-0.2-0.2-0.5-0.2-0.8v-1.3c0-0.3,0.1-0.5,0.2-0.8
	c0.1-0.2,0.4-0.4,0.6-0.5c0.3-0.1,0.6-0.2,0.9-0.2c0.3,0,0.6,0,0.9,0.2c0.2,0.1,0.4,0.2,0.6,0.4c0.1,0.2,0.2,0.4,0.2,0.6
	c0,0.1,0,0.2-0.1,0.3c-0.1,0.1-0.2,0.1-0.3,0.1h-0.1c0-0.1,0-0.1,0-0.2c0-0.2,0-0.3-0.1-0.5c-0.1-0.1-0.2-0.2-0.4-0.3
	c-0.2-0.1-0.4-0.1-0.6-0.1c-0.2,0-0.4,0-0.6,0.1c-0.2,0.1-0.3,0.2-0.4,0.3c-0.1,0.2-0.1,0.3-0.1,0.5v1.3c0,0.2,0,0.3,0.1,0.5
	c0.1,0.2,0.2,0.3,0.4,0.3c0.2,0.1,0.4,0.1,0.6,0.1c0.2,0,0.4,0,0.6-0.1c0.2-0.1,0.3-0.2,0.4-0.3c0.1-0.1,0.2-0.3,0.1-0.5
	c0-0.1,0-0.1,0-0.2h0.1c0.1,0,0.2,0,0.3,0.1c0.1,0.1,0.1,0.2,0.1,0.3c0,0.2-0.1,0.4-0.2,0.6c-0.2,0.2-0.4,0.3-0.6,0.4
	c-0.3,0.1-0.6,0.2-0.9,0.2C169.9,49.4,169.5,49.3,169.3,49.2z"/>
<path class="st1" d="M175.8,45.7h-1.4c0-0.3,0.1-0.5,0.5-0.5h3c0,0.3-0.1,0.5-0.5,0.5h-1v3.2c0,0.1,0,0.3-0.1,0.3
	c-0.1,0.1-0.3,0.1-0.4,0.1L175.8,45.7z"/>
<path class="st1" d="M180.8,45.6c0-0.1,0-0.3,0.1-0.3c0.1-0.1,0.3-0.1,0.4-0.1v3.8c0,0.1,0,0.3-0.1,0.3c-0.1,0.1-0.3,0.1-0.4,0.1
	V45.6z"/>
<path class="st1" d="M185.3,49.2c-0.2-0.1-0.5-0.3-0.6-0.5c-0.1-0.2-0.2-0.5-0.2-0.8v-1.3c0-0.3,0.1-0.5,0.2-0.7
	c0.2-0.2,0.4-0.4,0.6-0.5c0.6-0.3,1.2-0.3,1.8,0c0.2,0.1,0.5,0.3,0.6,0.5c0.1,0.2,0.2,0.5,0.2,0.7v1.3c0,0.3-0.1,0.5-0.2,0.8
	c-0.2,0.2-0.4,0.4-0.6,0.5c-0.3,0.1-0.6,0.2-0.9,0.2C185.8,49.4,185.5,49.3,185.3,49.2z M187,48.6c0.2-0.2,0.3-0.4,0.3-0.7v-1.3
	c0-0.3-0.1-0.5-0.3-0.7c-0.5-0.4-1.2-0.4-1.7,0c-0.2,0.2-0.3,0.4-0.3,0.7v1.3c0,0.3,0.1,0.5,0.3,0.7C185.8,49,186.5,49,187,48.6z"/>
<path class="st1" d="M190.8,45.6c0-0.1,0-0.3,0.1-0.3c0.1-0.1,0.2-0.1,0.4-0.1l2.3,3.5l0,0l-0.2-0.3v-3.2c0.1,0,0.3,0,0.4,0.1
	c0.1,0.1,0.1,0.2,0.1,0.3v3.3c0,0.1,0,0.2-0.1,0.3c-0.1,0.1-0.2,0.1-0.3,0.1l-2.3-3.5l0,0l0.2,0.3v2.8c0,0.1,0,0.3-0.1,0.3
	c-0.1,0.1-0.3,0.1-0.4,0.1V45.6z"/>
<path class="st1" d="M197.8,49.2c-0.2-0.1-0.4-0.2-0.6-0.4c-0.1-0.1-0.2-0.3-0.2-0.5c0-0.2,0.1-0.4,0.4-0.5c0,0,0.1,0,0.1,0
	c0,0.3,0.1,0.6,0.3,0.8c0.2,0.2,0.5,0.3,0.8,0.3c0.3,0,0.5,0,0.8-0.2c0.2-0.1,0.3-0.3,0.3-0.5c0-0.1,0-0.2-0.1-0.3
	c-0.1-0.1-0.2-0.2-0.4-0.2c-0.2-0.1-0.5-0.2-0.7-0.2c-0.3-0.1-0.6-0.1-0.9-0.3c-0.2-0.1-0.3-0.2-0.5-0.4c-0.1-0.2-0.2-0.4-0.1-0.6
	c0-0.2,0.1-0.4,0.2-0.6c0.1-0.2,0.3-0.3,0.5-0.4c0.3-0.1,0.5-0.1,0.8-0.1c0.3,0,0.5,0,0.8,0.1c0.2,0.1,0.4,0.2,0.5,0.3
	c0.1,0.1,0.2,0.3,0.2,0.5c0,0.1,0,0.2-0.1,0.3c-0.1,0.1-0.2,0.1-0.3,0.1c0-0.3-0.1-0.5-0.3-0.7c-0.2-0.2-0.5-0.2-0.7-0.2
	c-0.2,0-0.5,0-0.7,0.2c-0.2,0.1-0.2,0.3-0.2,0.5c0,0.1,0,0.2,0.1,0.3c0.1,0.1,0.2,0.2,0.3,0.2c0.2,0.1,0.4,0.1,0.6,0.2
	c0.3,0.1,0.7,0.2,1,0.3c0.2,0.1,0.4,0.2,0.5,0.4c0.1,0.2,0.2,0.4,0.2,0.6c0,0.3-0.2,0.7-0.4,0.8c-0.4,0.2-0.8,0.3-1.2,0.3
	C198.4,49.4,198.1,49.3,197.8,49.2z"/>
<path class="st1" d="M207.1,49.2c-0.1-0.1-0.1-0.1-0.1-0.2v-3.4c0-0.3,0.2-0.5,0.6-0.5v3.7h1.8c0.1,0,0.2,0,0.3,0.1
	c0.1,0.1,0.1,0.2,0.1,0.4h-2.5C207.2,49.3,207.2,49.3,207.1,49.2z"/>
<path class="st1" d="M212.8,49.2c-0.1-0.1-0.1-0.1-0.1-0.2v-3.4c0-0.3,0.2-0.5,0.6-0.5v3.7h1.8c0.1,0,0.2,0,0.3,0.1
	c0.1,0.1,0.1,0.2,0.1,0.4H213C212.9,49.3,212.9,49.3,212.8,49.2z"/>
<path class="st1" d="M218.4,45.5c0-0.1,0-0.1,0.1-0.2c0.1-0.1,0.1-0.1,0.2-0.1h1.7c0.2,0,0.5,0.1,0.7,0.2c0.2,0.1,0.4,0.3,0.5,0.5
	c0.1,0.2,0.2,0.4,0.2,0.7c0,0.2,0,0.5-0.2,0.7c-0.1,0.2-0.3,0.4-0.5,0.5c-0.2,0.1-0.5,0.2-0.7,0.2H219v1.1c0,0.1,0,0.3-0.1,0.3
	c-0.1,0.1-0.3,0.1-0.4,0.1V45.5z M220.4,47.3c0.2,0,0.4-0.1,0.6-0.2c0.1-0.2,0.2-0.4,0.2-0.6c0-0.2-0.1-0.4-0.2-0.6
	c-0.1-0.1-0.3-0.2-0.6-0.2H219v1.6L220.4,47.3z"/>
<path class="st1" d="M14.2,1.6h24.9c1.1,0,1.9,0.9,1.9,1.9c0,0.3-0.1,0.7-0.3,1L27.7,26.8L14.2,1.6z"/>
<linearGradient id="SVGID_1_" gradientUnits="userSpaceOnUse" x1="165.5149" y1="65.1938" x2="166.2249" y2="64.0438" gradientTransform="matrix(6.123234e-17 -1 -1 -6.123234e-17 85.5908 180.17)">
	<stop  offset="0" style="stop-color:#F5C21B"/>
	<stop  offset="1" style="stop-color:#E2AC14;stop-opacity:0"/>
</linearGradient>
<polygon class="st2" points="15.1,1.6 29,24.5 27.6,27.1 13.8,2.3 14.2,1.6 "/>
<path class="st3" d="M0,25.9L14.2,1.6l26.6,45.9c0.5,0.9,0.2,2.1-0.7,2.6c-0.3,0.2-0.6,0.3-1,0.3h-25L0,25.9z"/>
<path class="st0" d="M220.1,36.3c-0.8-0.8-1.8-1.2-2.9-1.1h-19.5V22.2h11.8c1.1,0.1,2.2-0.3,2.9-1.1c0.7-1,1-2.2,0.9-3.5h-21v19.6
	c0,0.7,0.3,1.3,0.8,1.8c0.5,0.5,1.2,0.7,1.9,0.7h26C221.2,38.5,220.9,37.3,220.1,36.3z"/>
<path class="st3" d="M197.7,5.1h18.3c1.1,0.1,2.2-0.3,2.9-1.1c0.7-1,1.1-2.3,1-3.5h-24.9c-0.7,0-1.4,0.2-1.9,0.7
	c-0.5,0.4-0.8,1.1-0.8,1.8v2.1H197.7z"/>
</svg>
